<svg xmlns="http://www.w3.org/2000/svg" viewBox="0 0 24 24">
  <path d="M12.5 4C9.62 4 7.1212344 5.6258125 5.8652344 8.0078125C2.6142344 8.0798125 0 10.732 0 14C0 17.314 2.686 20 6 20L11.283203 20C11.100203 19.368 11 18.698 11 18C11 14.075 14.075 11 18 11C18.694 11 19.359281 11.10125 19.988281 11.28125C19.871281 7.24125 16.568 4 12.5 4 z M 18 13C15.2 13 13 15.2 13 18C13 20.8 15.2 23 18 23C19 23 20.000781 22.699219 20.800781 22.199219L22.599609 24L24 22.599609L22.199219 20.800781C22.699219 20.000781 23 19 23 18C23 15.2 20.8 13 18 13 z M 18 15C19.7 15 21 16.3 21 18C21 19.7 19.7 21 18 21C16.3 21 15 19.7 15 18C15 16.3 16.3 15 18 15 z" fill="#2A2550" />
</svg>