<svg xmlns="http://www.w3.org/2000/svg" viewBox="0 0 26 26">
  <path d="M7 0C6.449219 0 6 0.449219 6 1L6 4C6 4.550781 6.449219 5 7 5C7.550781 5 8 4.550781 8 4L8 1C8 0.449219 7.550781 0 7 0 Z M 19 0C18.449219 0 18 0.449219 18 1L18 4C18 4.550781 18.449219 5 19 5C19.550781 5 20 4.550781 20 4L20 1C20 0.449219 19.550781 0 19 0 Z M 3 2C1.34375 2 0 3.34375 0 5L0 23C0 24.65625 1.34375 26 3 26L23 26C24.65625 26 26 24.65625 26 23L26 5C26 3.34375 24.65625 2 23 2L21 2L21 4C21 5.101563 20.105469 6 19 6C17.894531 6 17 5.101563 17 4L17 2L9 2L9 4C9 5.101563 8.105469 6 7 6C5.894531 6 5 5.101563 5 4L5 2 Z M 2 9L24 9L24 23C24 23.550781 23.550781 24 23 24L3 24C2.449219 24 2 23.550781 2 23 Z M 4.34375 11C4.128906 11.070313 3.988281 11.273438 4 11.5L4 14.21875C3.886719 14.390625 3.886719 14.609375 4 14.78125L4 18.28125C3.933594 18.417969 3.933594 18.582031 4 18.71875L4 21.5C4 21.777344 4.222656 22 4.5 22L21.5 22C21.777344 22 22 21.777344 22 21.5L22 18.625C22.015625 18.554688 22.015625 18.476563 22 18.40625L22 14.625C22.015625 14.554688 22.015625 14.476563 22 14.40625L22 11.5C22 11.222656 21.777344 11 21.5 11L4.5 11C4.46875 10.996094 4.4375 10.996094 4.40625 11C4.386719 11 4.363281 11 4.34375 11 Z M 5 12L8 12L8 13.09375C7.566406 13.242188 7.242188 13.566406 7.09375 14L5 14 Z M 9 12L13 12L13 13L9 13 Z M 14 12L17 12L17 14L14.90625 14C14.757813 13.566406 14.433594 13.242188 14 13.09375 Z M 18 12L21 12L21 14L18 14 Z M 5 15L7 15L7 18L5 18 Z M 9 15L13 15L13 18L9 18 Z M 15 15L17 15L17 18L15 18 Z M 18 15L21 15L21 18L18 18 Z M 5 19L7.09375 19C7.242188 19.433594 7.566406 19.757813 8 19.90625L8 21L5 21 Z M 14.90625 19L17 19L17 21L14 21L14 19.90625C14.433594 19.757813 14.757813 19.433594 14.90625 19 Z M 18 19L21 19L21 21L18 21 Z M 9 20L13 20L13 21L9 21Z" fill="#2A2550" />
</svg>