<svg xmlns="http://www.w3.org/2000/svg" viewBox="0 0 50 50">
  <path d="M14 4C8.4886661 4 4 8.4886661 4 14L4 36C4 41.511334 8.4886661 46 14 46L36 46C41.511334 46 46 41.511334 46 36L46 14C46 8.4886661 41.511334 4 36 4L14 4 z M 14 6L36 6C40.430666 6 44 9.5693339 44 14L44 36C44 40.430666 40.430666 44 36 44L14 44C9.5693339 44 6 40.430666 6 36L6 14C6 9.5693339 9.5693339 6 14 6 z M 32 13C28.831784 13 26.093824 14.857597 24.800781 17.542969C23.930607 17.204848 22.994154 17 22 17C18.123426 17 14.964148 19.810473 14.240234 23.484375C11.781965 24.412405 10 26.726427 10 29.5C10 32.718409 12.384447 35.338203 15.466797 35.845703 A 1.0001 1.0001 0 0 0 16 36L29 36C32.854334 36 36 32.854334 36 29C36 28.649611 35.964536 28.308532 35.914062 27.972656C38.35241 26.598868 40 23.987031 40 21C40 16.593562 36.406438 13 32 13 z M 32 15C35.325562 15 38 17.674438 38 21C38 23.097192 36.923196 24.925909 35.302734 25.998047C34.2169 23.769612 31.968849 22.20826 29.351562 22.070312C28.772052 20.623167 27.795654 19.380075 26.558594 18.484375C27.510509 16.431049 29.578254 15 32 15 z M 22 19C24.731835 19 27.016987 20.816348 27.75 23.298828 A 1.0001 1.0001 0 0 0 28.761719 24.013672C28.893652 24.006871 28.970027 24 29 24C31.773666 24 34 26.226334 34 29C34 31.773666 31.773666 34 29 34L16.886719 34L16.990234 34.855469 A 1.0001 1.0001 0 0 0 16.087891 33.978516C13.792805 33.769573 12 31.85754 12 29.5C12 27.416545 13.406241 25.684769 15.3125 25.164062 A 1.0001 1.0001 0 0 0 16.042969 24.3125C16.384344 21.319894 18.907735 19 22 19 z" fill="#2A2550" />
</svg>