<svg xmlns="http://www.w3.org/2000/svg" viewBox="0 0 30 30">
  <path d="M17.5 3C15.1 3 13.008812 4.3032813 11.882812 6.2382812C11.444813 6.0962813 10.986 6 10.5 6C8.17 6 6.277875 7.777875 6.046875 10.046875C3.777875 10.277875 2 12.17 2 14.5C2 14.671 2.0327813 14.834 2.0507812 15L8.1699219 15C8.0609219 14.687 8 14.351 8 14C8 12.343 9.343 11 11 11L12 11C14.757 11 17 13.243 17 16C17 17.13 16.609609 18.162 15.974609 19L23.5 19C25.985 19 28 16.985 28 14.5C28 12.177 26.232656 10.287828 23.972656 10.048828C23.987656 9.8678281 24 9.685 24 9.5C24 5.91 21.09 3 17.5 3 z M 11 13 A 1.0001 1.0001 0 1 0 11 15L12 15C12.56503 15 13 15.43497 13 16C13 16.56503 12.56503 17 12 17L3 17 A 1.0001 1.0001 0 1 0 3 19L12 19C13.64497 19 15 17.64497 15 16C15 14.35503 13.64497 13 12 13L11 13 z M 5 21 A 1 1 0 0 0 5 23 A 1 1 0 0 0 5 21 z M 9 21 A 1.0001 1.0001 0 1 0 9 23L19.5 23C20.340812 23 21 23.659188 21 24.5C21 25.340812 20.340812 26 19.5 26L18 26 A 1.0001 1.0001 0 1 0 18 28L19.5 28C21.421188 28 23 26.421188 23 24.5C23 22.578812 21.421188 21 19.5 21L9 21 z" fill="#2A2550" />
</svg>