<svg xmlns="http://www.w3.org/2000/svg" width="50" height="50" viewBox="0 0 50 50">
  <path d="M24.970703 -0.02734375 A 2.0002 2.0002 0 0 0 23 2L23 6.171875L21.109375 4.28125 A 2.0002 2.0002 0 0 0 19.673828 3.6738281 A 2.0002 2.0002 0 0 0 18.28125 7.109375L23 11.828125L23 21.535156L14.59375 16.683594L12.861328 10.21875 A 2.0002 2.0002 0 0 0 10.96875 8.7089844 A 2.0002 2.0002 0 0 0 8.9980469 11.253906L9.6933594 13.853516L6.0605469 11.755859 A 2.0002 2.0002 0 0 0 5.1113281 11.474609 A 2.0002 2.0002 0 0 0 4.0605469 15.220703L7.6933594 17.318359L5.1230469 18.005859 A 2.0002 2.0002 0 1 0 6.1582031 21.869141L12.591797 20.146484L21.021484 25.011719L12.607422 29.857422L6.2089844 28.144531 A 2.0002 2.0002 0 0 0 5.6171875 28.068359 A 2.0002 2.0002 0 0 0 5.1738281 32.007812L7.7011719 32.683594L4.0625 34.779297 A 2.0002 2.0002 0 1 0 6.0585938 38.246094L9.6914062 36.152344L9.0214844 38.658203 A 2.000724 2.000724 0 1 0 12.886719 39.693359L14.589844 33.332031L23 28.488281L23 38.171875L18.320312 42.851562 A 2.0002 2.0002 0 1 0 21.148438 45.679688L23 43.828125L23 48 A 2.0002 2.0002 0 1 0 27 48L27 43.828125L28.875 45.703125 A 2.0002 2.0002 0 1 0 31.703125 42.875L27 38.171875L27 28.464844L35.40625 33.316406L37.138672 39.78125 A 2.0002 2.0002 0 1 0 41.001953 38.746094L40.304688 36.144531L43.9375 38.242188 A 2.0002 2.0002 0 1 0 45.9375 34.779297L42.304688 32.681641L44.859375 31.998047 A 2.0002 2.0002 0 0 0 44.355469 28.058594 A 2.0002 2.0002 0 0 0 43.824219 28.134766L37.40625 29.853516L29.029297 25.017578L37.460938 20.160156L43.835938 21.869141 A 2.0002 2.0002 0 1 0 44.871094 18.005859L42.367188 17.333984L45.935547 15.279297 A 2.0002 2.0002 0 0 0 45.029297 11.533203 A 2.0002 2.0002 0 0 0 43.939453 11.814453L40.289062 13.916016L40.986328 11.316406 A 2.0002 2.0002 0 0 0 38.955078 8.7734375 A 2.0002 2.0002 0 0 0 37.123047 10.28125L35.390625 16.736328L27 21.570312L27 11.828125L31.71875 7.109375 A 2.0002 2.0002 0 1 0 28.890625 4.28125L27 6.171875L27 2 A 2.0002 2.0002 0 0 0 24.970703 -0.02734375 z" fill="#2A2550" />
</svg>